<?xml version="1.0" encoding="UTF-8" standalone="no"?>
<svg width="7px" height="7px" viewBox="0 0 7 7" version="1.1" xmlns="http://www.w3.org/2000/svg" xmlns:xlink="http://www.w3.org/1999/xlink">
    <!-- Generator: Sketch 39.1 (31720) - http://www.bohemiancoding.com/sketch -->
    <title>х</title>
    <desc>Created with Sketch.</desc>
    <defs></defs>
    <g id="CLASS" stroke="none" stroke-width="1" fill="none" fill-rule="evenodd">
        <g id="01-Index-B" transform="translate(-698.000000, -355.000000)" fill="#8D96B2">
            <g id="х" transform="translate(695.000000, 352.000000)">
                <path d="M7,6 L7,2.50966585 C7,2.22247314 6.77614237,2 6.5,2 C6.23193359,2 6,2.22818517 6,2.50966585 L6,6 L2.50966585,6 C2.22247314,6 2,6.22385763 2,6.5 C2,6.76806641 2.22818517,7 2.50966585,7 L6,7 L6,10.4903342 C6,10.7775269 6.22385763,11 6.5,11 C6.76806641,11 7,10.7718148 7,10.4903342 L7,7 L10.4903342,7 C10.7775269,7 11,6.77614237 11,6.5 C11,6.23193359 10.7718148,6 10.4903342,6 L7,6 Z" id="Combined-Shape" transform="translate(6.500000, 6.500000) rotate(45.000000) translate(-6.500000, -6.500000) "></path>
            </g>
        </g>
    </g>
</svg>