<?xml version="1.0" encoding="UTF-8"?>
<svg width="165px" height="28px" viewBox="0 0 165 28" version="1.1" xmlns="http://www.w3.org/2000/svg" xmlns:xlink="http://www.w3.org/1999/xlink">
    <!-- Generator: Sketch 42 (36781) - http://www.bohemiancoding.com/sketch -->
    <title>@grid</title>
    <desc>Created with Sketch.</desc>
    <defs></defs>
    <g id="Page-2" stroke="none" stroke-width="1" fill="none" fill-rule="evenodd">
        <g id="Desktop" transform="translate(-535.000000, -133.000000)">
            <g id="LOGO" transform="translate(535.000000, 133.000000)">
                <rect id="@grid" x="0" y="0" width="165" height="28"></rect>
                <g id="class" transform="translate(117.000000, 0.000000)">
                    <rect id="@grid" x="0" y="0" width="48" height="28"></rect>
                    <path d="M4.276,15.152 L3.769,15.152 L3.769,19 L1.845,19 L1.845,9.9 L3.769,9.9 L3.769,13.904 L4.224,13.709 L6.954,9.9 L9.151,9.9 L6.265,13.709 L5.511,14.203 L6.291,14.723 L9.593,19 L7.214,19 L4.276,15.152 Z M17.6548572,11.59 L15.5618572,11.59 C15.5185236,12.4133375 15.4730241,13.1564967 15.4253572,13.8195 C15.3776903,14.4825033 15.3126909,15.0783307 15.2303572,15.607 C15.1480234,16.1356693 15.0375246,16.6058313 14.8988572,17.0175 C14.7601898,17.4291687 14.5868582,17.7909984 14.3788572,18.103 C14.2401898,18.3023343 14.086358,18.4669994 13.9173572,18.597 C13.7483563,18.7270007 13.5728581,18.828833 13.3908572,18.9025 C13.2088563,18.976167 13.0311914,19.0281665 12.8578572,19.0585 C12.684523,19.0888335 12.5241913,19.104 12.3768572,19.104 C12.1515227,19.104 11.9760245,19.0866668 11.8503572,19.052 C11.7246899,19.0173332 11.5881913,18.9653337 11.4408572,18.896 L11.6488572,17.284 C11.744191,17.3186668 11.8568565,17.336 11.9868572,17.336 C12.1341913,17.336 12.2815231,17.3013337 12.4288572,17.232 C12.5761913,17.1626663 12.70619,17.0500008 12.8188572,16.894 C12.9575246,16.7033324 13.0810233,16.4303351 13.1893572,16.075 C13.2976911,15.7196649 13.3886902,15.2581695 13.4623572,14.6905 C13.5360242,14.1228305 13.5966903,13.4446706 13.6443572,12.656 C13.6920241,11.8673294 13.7245238,10.9486719 13.7418572,9.9 L19.5788572,9.9 L19.5788572,19 L17.6548572,19 L17.6548572,11.59 Z M27.5497144,17.063 L24.4817144,17.063 L23.7407144,19 L21.8167144,19 L25.3787144,9.835 L26.7957144,9.835 L30.3707144,19 L28.3297144,19 L27.5497144,17.063 Z M25.0147144,15.542 L27.0947144,15.542 L26.3927144,13.644 L26.0807144,12.201 L26.0157144,12.201 L25.7037144,13.657 L25.0147144,15.542 Z M38.8615716,18.61 C38.5755702,18.8093343 38.1985739,18.9544995 37.7305716,19.0455 C37.2625692,19.1365005 36.7815741,19.182 36.2875716,19.182 C35.706902,19.182 35.1500742,19.0953342 34.6170716,18.922 C34.0840689,18.7486658 33.6117403,18.4713352 33.2000716,18.09 C32.7884029,17.7086648 32.4612395,17.219003 32.2185716,16.621 C31.9759037,16.022997 31.8545716,15.2993376 31.8545716,14.45 C31.8545716,13.5659956 31.9932369,12.8228363 32.2705716,12.2205 C32.5479063,11.6181637 32.9032361,11.1328352 33.3365716,10.7645 C33.7699071,10.3961648 34.2509023,10.1296675 34.7795716,9.965 C35.3082409,9.80033251 35.8282357,9.718 36.3395716,9.718 C36.9029077,9.718 37.377403,9.75266632 37.7630716,9.822 C38.1487402,9.89133368 38.467237,9.97366619 38.7185716,10.069 L38.3415716,11.681 C38.1249038,11.5856662 37.8714064,11.5163336 37.5810716,11.473 C37.2907368,11.4296665 36.9245738,11.408 36.4825716,11.408 C36.0925696,11.408 35.7394065,11.4708327 35.4230716,11.5965 C35.1067367,11.7221673 34.835906,11.9106654 34.6105716,12.162 C34.3852371,12.4133346 34.2097389,12.7296648 34.0840716,13.111 C33.9584043,13.4923352 33.8955716,13.9386641 33.8955716,14.45 C33.8955716,14.9006689 33.9519044,15.3123315 34.0645716,15.685 C34.1772388,16.0576685 34.3462371,16.378332 34.5715716,16.647 C34.796906,16.915668 35.0829032,17.1236659 35.4295716,17.271 C35.77624,17.4183341 36.179236,17.492 36.6385716,17.492 C37.0632404,17.492 37.4207368,17.4530004 37.7110716,17.375 C38.0014064,17.2969996 38.2592371,17.1973339 38.4845716,17.076 L38.8615716,18.61 Z M47.6774288,18.61 C47.3914273,18.8093343 47.0144311,18.9544995 46.5464288,19.0455 C46.0784264,19.1365005 45.5974312,19.182 45.1034288,19.182 C44.5227592,19.182 43.9659314,19.0953342 43.4329288,18.922 C42.8999261,18.7486658 42.4275975,18.4713352 42.0159288,18.09 C41.6042601,17.7086648 41.2770967,17.219003 41.0344288,16.621 C40.7917609,16.022997 40.6704288,15.2993376 40.6704288,14.45 C40.6704288,13.5659956 40.8090941,12.8228363 41.0864288,12.2205 C41.3637635,11.6181637 41.7190933,11.1328352 42.1524288,10.7645 C42.5857643,10.3961648 43.0667595,10.1296675 43.5954288,9.965 C44.1240981,9.80033251 44.6440929,9.718 45.1554288,9.718 C45.7187649,9.718 46.1932602,9.75266632 46.5789288,9.822 C46.9645974,9.89133368 47.2830942,9.97366619 47.5344288,10.069 L47.1574288,11.681 C46.940761,11.5856662 46.6872636,11.5163336 46.3969288,11.473 C46.106594,11.4296665 45.740431,11.408 45.2984288,11.408 C44.9084268,11.408 44.5552637,11.4708327 44.2389288,11.5965 C43.9225939,11.7221673 43.6517632,11.9106654 43.4264288,12.162 C43.2010943,12.4133346 43.0255961,12.7296648 42.8999288,13.111 C42.7742615,13.4923352 42.7114288,13.9386641 42.7114288,14.45 C42.7114288,14.9006689 42.7677615,15.3123315 42.8804288,15.685 C42.993096,16.0576685 43.1620943,16.378332 43.3874288,16.647 C43.6127632,16.915668 43.8987604,17.1236659 44.2454288,17.271 C44.5920972,17.4183341 44.9950931,17.492 45.4544288,17.492 C45.8790976,17.492 46.236594,17.4530004 46.5269288,17.375 C46.8172636,17.2969996 47.0750943,17.1973339 47.3004288,17.076 L47.6774288,18.61 Z" fill="#315EFB"></path>
                </g>
                <g id="rambler">
                    <rect id="@grid" x="0" y="0" width="117" height="28"></rect>
                    <polygon id="Shape" fill="#315EFB" points="111.516129 2.24193548 102.645161 26.4354839 106.274194 26.4354839 115.145161 2.24193548"></polygon>
                    <path d="M97.8870968,14.0967742 C97.8870968,16.1935484 96.6774194,17.9677419 94.3387097,17.9677419 C92,17.9677419 90.7096774,16.0322581 90.7096774,14.0967742 C90.7096774,12.1612903 92,10.2258064 94.3387097,10.2258064 C96.5967742,10.2258064 97.8870968,11.9193548 97.8870968,14.0967742 M94.7419355,7.48387097 C92.483871,7.48387097 91.1935484,8.69354839 90.7903226,9.17741935 L90.7903226,7.80645161 L87.4032258,7.80645161 L87.4032258,26.4354839 L90.8709677,26.4354839 L90.8709677,19.1774194 C91.2741935,19.5806452 92.6451613,20.7096774 94.7419355,20.7096774 C97.9677419,20.7096774 100.951613,18.2903226 100.951613,14.0967742 C101.032258,9.66129032 97.7258065,7.48387097 94.7419355,7.48387097" id="Shape" fill="#315EFB"></path>
                    <path d="M76.1935484,12.7258065 C76.2741935,11.8387097 77.1612903,10.1451613 79.2580645,10.1451613 C81.5967742,10.1451613 82,12 82.0806452,12.7258065 L76.1935484,12.7258065 L76.1935484,12.7258065 L76.1935484,12.7258065 Z M79.3387097,7.48387097 C75.3870968,7.48387097 72.7258065,10.3870968 72.7258065,14.0967742 C72.7258065,17.8064516 75.3870968,20.7096774 79.4193548,20.7096774 C83.4516129,20.7096774 85.1451613,17.8870968 85.1451613,17.8870968 L82.5645161,16.1935484 C82.5645161,16.1935484 81.6774194,17.9677419 79.4193548,17.9677419 C77.0806452,17.9677419 76.1129032,15.9516129 76.1129032,15.2258065 L85.3870968,15.2258065 C85.3870968,15.2258065 85.4677419,14.6612903 85.4677419,14.5 L85.4677419,14.0967742 C85.4677419,10.3064516 83.2096774,7.48387097 79.3387097,7.48387097 L79.3387097,7.48387097 L79.3387097,7.48387097 Z" id="Shape" fill="#315EFB"></path>
                    <polygon id="Shape" fill="#315EFB" points="68.7741935 20.3870968 72.483871 20.3870968 67.8870968 7.80645161 64.2580645 7.80645161 59.5806452 20.3870968 63.3709677 20.3870968 66.0322581 12.4032258 66.1129032 12.4032258"></polygon>
                    <path d="M55.9516129,14.4193548 C55.9516129,15.8709677 55.1451613,17.9677419 52.8064516,17.9677419 C50.4677419,17.9677419 49.5,16.1129032 49.5,14.3387097 C49.5,12.5645161 50.4677419,10.9516129 52.8064516,10.9516129 C55.1451613,10.9516129 55.9516129,12.9677419 55.9516129,14.4193548 M53.1290323,7.80645161 C51.4354839,7.80645161 50.2258065,8.61290323 49.9032258,8.85483871 C49.983871,8.4516129 50.3870968,5.06451613 54.9032258,5.06451613 L57.7258065,5.06451613 L58.7741935,2.24193548 L54.983871,2.24193548 C49.983871,2.24193548 46.1129032,4.58064516 46.1129032,12.7258065 C46.1129032,17.1612903 48.0483871,20.7903226 52.7258065,20.7903226 C57.1612903,20.7903226 59.4193548,17.5645161 59.4193548,14.3387097 C59.4193548,9.66129032 55.9516129,7.80645161 53.1290323,7.80645161" id="Shape" fill="#315EFB"></path>
                    <polygon id="Shape" fill="#315EFB" points="36.5967742 13.1290323 32.2419355 7.88709677 32.1612903 7.80645161 29.1774194 7.80645161 29.1774194 20.3870968 32.6451613 20.3870968 32.6451613 13.0483871 36.0322581 17.4032258 36.1129032 17.483871 37 17.483871 40.4677419 13.0483871 40.4677419 20.3870968 43.9354839 20.3870968 43.9354839 7.80645161 40.9516129 7.80645161"></polygon>
                    <path d="M23.0483871,15.1451613 C23.0483871,16.8387097 22.0806452,18.0483871 20.2258065,18.0483871 C18.4516129,18.0483871 18.2903226,17 18.2903226,16.5967742 C18.2903226,15.6290323 19.0967742,15.0645161 21.1129032,14.8225806 C21.6774194,14.7419355 22.2419355,14.7419355 22.8064516,14.7419355 L23.0483871,14.7419355 L23.0483871,15.1451613 L23.0483871,15.1451613 L23.0483871,15.1451613 Z M26.2741935,17.6451613 L26.2741935,13.8548387 L26.2741935,13.1290323 C26.1129032,9.17741935 24.4193548,7.56451613 20.8709677,7.56451613 C18.4516129,7.56451613 16.8387097,8.53225806 16.2741935,8.93548387 L17.2419355,11.516129 C17.2419355,11.516129 18.6935484,10.2258065 20.5483871,10.2258065 C23.2096774,10.2258065 22.8870968,12.4032258 22.8870968,12.4032258 C22,12.4032258 14.8225806,12 14.8225806,16.6774194 C14.8225806,19.2580645 17,20.7096774 19.3387097,20.7096774 C21.4354839,20.7096774 22.6451613,19.6612903 22.9677419,19.2580645 C22.9677419,19.3387097 23.0483871,20.4677419 23.0483871,20.4677419 L26.2741935,20.4677419 C26.4354839,20.3870968 26.2741935,19.3387097 26.2741935,17.6451613 L26.2741935,17.6451613 L26.2741935,17.6451613 Z" id="Shape" fill="#315EFB"></path>
                    <path d="M10.8709677,8.12903226 C10.8709677,10.2258064 8.85483871,10.9516129 7.48387097,10.9516129 L5.70967742,10.9516129 L5.70967742,5.22580645 L7.48387097,5.22580645 C8.85483871,5.30645161 10.8709677,6.03225806 10.8709677,8.12903226 M7.80645161,2.24193548 L2.16129032,2.24193548 L2.16129032,20.4677419 L5.79032258,20.4677419 L5.79032258,14.016129 L7.72580645,14.016129 C11.4354839,14.016129 14.5,12.0806452 14.5,8.12903226 C14.5,4.25806452 11.4354839,2.24193548 7.80645161,2.24193548" id="Shape" fill="#315EFB"></path>
                </g>
            </g>
        </g>
    </g>
</svg>