<?xml version="1.0" encoding="UTF-8"?>
<svg width="222px" height="35px" viewBox="0 0 222 35" version="1.1" xmlns="http://www.w3.org/2000/svg" xmlns:xlink="http://www.w3.org/1999/xlink">
    <!-- Generator: Sketch 46.1 (44463) - http://www.bohemiancoding.com/sketch -->
    <title>logo-rambler-class</title>
    <desc>Created with Sketch.</desc>
    <defs></defs>
    <g id="Work" stroke="none" stroke-width="1" fill="none" fill-rule="evenodd">
        <g id="Страница-препарата" transform="translate(-217.000000, -200.000000)">
            <g id="logo-rambler-class" transform="translate(217.000000, 197.000000)">
                <rect id="frame" x="0" y="0" width="222" height="40"></rect>
                <path d="M136.78,37.25 L141.72,37.25 L153.796,3 L148.856,3 L136.78,37.25 Z M125.473,25.262 C122.289,25.262 120.533,22.522 120.533,19.782 C120.533,17.042 122.289,14.302 125.473,14.302 C128.546,14.302 130.303,16.7 130.303,19.782 C130.303,22.751 128.656,25.262 125.473,25.262 L125.473,25.262 Z M120.643,12.818 L120.643,10.878 L116.033,10.878 L116.033,37.25 L120.753,37.25 L120.753,26.975 C121.302,27.545 123.168,29.145 126.021,29.145 C130.411,29.145 134.473,25.719 134.473,19.782 C134.583,13.503 130.083,10.421 126.021,10.421 C122.948,10.421 121.191,12.133 120.643,12.818 Z M104.946,14.188 C108.129,14.188 108.678,16.814 108.788,17.842 L100.774,17.842 C100.884,16.586 102.091,14.188 104.946,14.188 Z M96.054,19.782 C96.054,25.034 99.676,29.144 105.165,29.144 C110.654,29.144 112.959,25.148 112.959,25.148 L109.446,22.751 C109.446,22.751 108.239,25.262 105.166,25.262 C101.982,25.262 100.664,22.408 100.664,21.381 L113.288,21.381 C113.288,21.381 113.398,20.581 113.398,20.353 L113.398,19.783 C113.398,14.417 110.325,10.421 105.055,10.421 C99.676,10.421 96.054,14.531 96.054,19.782 L96.054,19.782 Z M95.724,28.687 L89.467,10.877 L84.527,10.877 L78.16,28.687 L83.32,28.687 L86.942,17.385 L87.052,17.385 L90.675,28.687 L95.725,28.687 L95.724,28.687 Z M68.939,25.262 C65.756,25.262 64.439,22.637 64.439,20.125 C64.439,17.613 65.756,15.33 68.939,15.33 C72.123,15.33 73.22,18.184 73.22,20.24 C73.22,22.294 72.123,25.263 68.94,25.263 L68.939,25.262 Z M64.987,12.362 C65.097,11.791 65.646,6.996 71.793,6.996 L75.635,6.996 L77.062,3 L71.903,3 C65.097,3 59.828,6.31 59.828,17.842 C59.828,24.121 62.462,29.258 68.829,29.258 C74.867,29.258 77.941,24.692 77.941,20.125 C77.941,13.503 73.221,10.877 69.378,10.877 C67.073,10.877 65.426,12.019 64.988,12.362 L64.987,12.362 Z M40.947,10.992 L40.837,10.877 L36.775,10.877 L36.775,28.687 L41.495,28.687 L41.495,18.299 L46.105,24.35 L46.215,24.579 L47.423,24.579 L52.143,18.299 L52.143,28.689 L56.863,28.689 L56.863,10.879 L52.803,10.879 L46.874,18.414 L40.946,10.993 L40.947,10.992 Z M24.59,25.377 C22.175,25.377 21.955,23.892 21.955,23.322 C21.955,21.952 23.053,21.152 25.797,20.81 C26.566,20.696 27.334,20.696 28.103,20.696 L28.432,20.696 L28.432,21.266 C28.432,23.664 27.115,25.376 24.59,25.376 L24.59,25.377 Z M32.823,19.326 L32.823,18.298 C32.603,12.704 30.298,10.421 25.468,10.421 C22.175,10.421 19.979,11.791 19.211,12.361 L20.528,16.015 C20.528,16.015 22.504,14.188 25.028,14.188 C28.651,14.188 28.212,17.271 28.212,17.271 C27.005,17.271 17.235,16.7 17.235,23.321 C17.235,26.975 20.199,29.03 23.382,29.03 C26.236,29.03 27.883,27.546 28.322,26.975 C28.322,27.089 28.432,28.687 28.432,28.687 L32.822,28.687 C33.042,28.687 32.822,27.203 32.822,24.692 L32.822,19.326 L32.823,19.326 Z M7.245,15.33 L4.83,15.33 L4.83,7.224 L7.245,7.224 C9.111,7.338 11.855,8.366 11.855,11.334 C11.855,14.303 9.111,15.33 7.245,15.33 L7.245,15.33 Z M0,3 L0,28.802 L4.94,28.802 L4.94,19.668 L7.575,19.668 C12.625,19.668 16.795,16.928 16.795,11.334 C16.795,5.854 12.625,3 7.685,3 L0,3 Z M162.454,22.592 C162.454,22.117 162.436,21.547 162.417,21.224 L162.509,21.224 C162.838,21.756 163.112,22.155 163.349,22.421 L166.839,27 L170.09,27 L164.591,19.875 L169.835,13.472 L166.637,13.472 L163.349,17.576 C163.112,17.842 162.838,18.241 162.509,18.773 L162.417,18.773 C162.436,18.45 162.454,18.032 162.454,17.557 L162.454,13.472 L159.969,13.472 L159.969,27 L162.454,27 L162.454,22.592 Z M173.299,22.269 C173.299,23.656 172.641,24.34 171.673,24.416 L171.673,27.095 C172.861,27.038 173.847,26.601 174.633,25.784 C175.418,24.967 175.82,23.808 175.82,22.345 L175.82,16.018 L179.858,16.018 L179.858,27 L182.378,27 L182.378,13.472 L173.3,13.472 L173.3,22.269 L173.299,22.269 Z M184.839,27 L190.612,13.472 L192.182,13.472 L197.975,27 L195.216,27 L194.011,24.131 L188.767,24.131 L187.597,27 L184.838,27 L184.839,27 Z M189.826,21.585 L192.95,21.585 L191.963,19.229 C191.799,18.849 191.635,18.355 191.452,17.766 L191.342,17.766 L191.123,18.431 C190.995,18.792 190.903,19.058 190.813,19.248 L189.826,21.585 L189.826,21.585 Z M208.929,23.428 C207.887,24.245 206.883,24.663 205.951,24.663 C204.781,24.663 203.813,24.226 203.046,23.371 C202.297,22.516 201.913,21.471 201.913,20.236 C201.913,19.001 202.297,17.956 203.046,17.101 C203.813,16.246 204.782,15.809 205.951,15.809 C206.919,15.809 207.906,16.227 208.929,17.082 L208.929,14.042 C207.906,13.51 206.919,13.244 205.951,13.244 C204.124,13.244 202.571,13.928 201.274,15.277 C199.995,16.626 199.356,18.279 199.356,20.236 C199.356,22.174 199.996,23.827 201.274,25.176 C202.571,26.525 204.124,27.209 205.951,27.209 C206.919,27.209 207.906,26.943 208.929,26.411 L208.929,23.428 Z M221.089,23.428 C220.049,24.245 219.043,24.663 218.112,24.663 C216.942,24.663 215.974,24.226 215.207,23.371 C214.457,22.516 214.074,21.471 214.074,20.236 C214.074,19.001 214.458,17.956 215.207,17.101 C215.974,16.246 216.942,15.809 218.112,15.809 C219.08,15.809 220.066,16.227 221.089,17.082 L221.089,14.042 C220.066,13.51 219.079,13.244 218.112,13.244 C216.285,13.244 214.732,13.928 213.435,15.277 C212.155,16.626 211.516,18.279 211.516,20.236 C211.516,22.174 212.156,23.827 213.435,25.176 C214.732,26.525 216.285,27.209 218.112,27.209 C219.08,27.209 220.066,26.943 221.089,26.411 L221.089,23.428 Z" id="Shape" fill="#315EFB"></path>
            </g>
        </g>
    </g>
</svg>